<?xml version="1.0" encoding="utf-8"?>
<!-- Generator: Adobe Illustrator 24.3.0, SVG Export Plug-In . SVG Version: 6.00 Build 0)  -->
<svg version="1.1" id="Camada_1" xmlns="http://www.w3.org/2000/svg" xmlns:xlink="http://www.w3.org/1999/xlink" x="0px" y="0px"
	 viewBox="0 0 1080 1080" style="enable-background:new 0 0 1080 1080;" xml:space="preserve">
<style type="text/css">
	.st0{display:none;fill:#FDFEFF;}
	.st1{display:none;fill:#0E2340;}
	.st2{fill:#002059;}
	.st3{fill:#129DE4;}
	.st4{fill:#14E259;}
	.st5{fill:#FEFEFE;}
	.st6{display:none;}
	.st7{display:inline;fill:#002059;}
	.st8{fill:url(#SVGID_1_);}
</style>
<rect class="st0" width="1080" height="1080"/>
<rect x="398.47" y="632.84" class="st1" width="8.53" height="115.92"/>
<rect x="577.33" y="629.07" class="st1" width="8.53" height="115.92"/>
<rect x="665.36" y="627.2" class="st1" width="8.53" height="115.92"/>
<rect x="486.49" y="633.24" class="st1" width="8.53" height="115.92"/>
<g>
	<g>
		<path class="st2" d="M381.83,444.86c3.51,0.88,1.09,3.26,1.36,4.91c-0.35,0.23-0.6,0.55-0.82,0.53
			c-8.28-0.98-10.42,1.6-8.15,10.74c2.8,11.24,6.59,22.25,6.81,34.02c0.33,17.79-7.26,31.88-20,43.71
			c-9.36,8.68-19.85,15.34-33.01,18.97c3.76,4.14,7.17,7.87,10.55,11.62c1.42,1.57,3.04,0.64,4.56,0.38
			c23.39-3.92,46.9-6.92,70.64-9.44c1,1.41,0.51,3.04,1.16,5.28c-57.98,4.49-183.39,32.24-237.98,50.81
			c-1.3-1.51-1.53-2.95-1.85-4.9c16.81-5.61,103.24-26.06,120.48-30.99c-2.75-7.39-5.46-14.56-8.06-21.75
			c-0.56-1.54-1.48-2.44-2.99-2.97c-7.52-2.66-14.7-6.1-21.74-9.79c-2.55-1.34-4.41-1.31-6.91,0.12
			c-14.12,8.06-28.33,15.93-43.28,22.46c-11.58,5.05-21.47,3.02-30.85-4.57c-3.85-3.12-3.49-5.81,1.09-7.66
			c37.88-15.31,75.81-30.45,115.65-40.12c7.75-1.88,15.34-4.44,22.37-8.31c7.2-3.97,8.4-7.89,4.93-15.4
			c-2.4-5.2-6.05-9.41-10.45-13.53c-13.51,12.75-26.94,25.42-40.43,38.15c-1.16-1.13-2.2-2.15-3.6-3.51
			c7.27-6.9,14.49-13.78,21.74-20.63c6.24-5.9,12.56-11.71,18.73-17.68c2.41-2.34,4.65-2.38,6.86-0.1c3.08,3.18,6,6.52,8.98,9.79
			c1.12,2.41,2.39,4.75,3.32,7.23c3.26,8.72,1.96,12.94-5.58,18.33c-1.56,1.11-3.29,1.98-4.96,2.94
			c-8.79,5.11-18.75,7.14-28.35,9.57c-27.94,7.06-54.79,17.16-81.57,27.56c-8.08,3.13-16.07,6.47-24.33,9.8
			c2.3,2.96,5.3,3.89,8.1,5.12c7.41,2.62,13.94-0.48,20.43-3.31c14.16-6.18,27.37-14.19,40.84-21.68c2.59-1.44,4.75-1.59,7.41-0.11
			c4.25,2.36,8.7,4.36,13.09,6.46c23,11.05,46.02,11.75,68.12-1.72c16.22-9.89,28.94-23.02,31.38-43.26
			c1.19-9.86-0.94-19.34-3.11-28.82c-1.52-5.23-2.98-10.47-3.77-15.88c-1.13-7.69,1.85-11.38,9.67-11.95
			C379.5,445.21,380.66,445,381.83,444.86z M333.42,571.35c-3.48-3.92-6.63-7.42-9.72-10.98c-0.75-0.86-1.54-1.33-2.68-1.17
			c-9.19,1.3-18.4,0.98-28.1-0.38c2.69,7.17,5.16,13.72,7.61,20.25C311.64,576.47,322.25,573.98,333.42,571.35z"/>
		<path class="st3" d="M194.27,565.55c-2.81-1.23-5.8-2.16-8.1-5.12c8.26-3.33,16.25-6.66,24.33-9.8
			c26.78-10.39,53.63-20.49,81.57-27.56c9.6-2.43,19.56-4.46,28.35-9.57c1.66-0.97,3.4-1.83,4.96-2.94
			c7.54-5.39,8.84-9.61,5.58-18.33c-0.93-2.48-2.2-4.82-3.32-7.23c1.85-1.47,3.7-2.94,5.54-4.42c3.14-2.53,6.06-4.34,10.75-3.29
			c6.59,1.47,14.98-3.79,18.16-10.13c2.7-5.39,0.74-12.92-3.47-18.48c-6.67-8.8-23.94-9.39-32.37,4.01
			c-0.66-1.48-2.65-1.88-3.17-4.14c18.75-14.29,39.82-19.81,63.29-16.35c-0.56,2.27-0.67,4.44,1.27,6.21
			c0.06,0.05,0.05,0.31-0.01,0.35c-0.47,0.3-0.71,0.02-0.87-0.39c-8.15-3.19-16.22-1.69-24.24,0c-0.37,2.01-0.03,3.33,1.14,4.41
			c3.11-0.38,6.17-0.75,9.22-1.14c3.11-0.4,6.17,0.05,9.23,0.49c-0.09,0.91-0.17,1.82-0.26,2.73c-1.17,0.15-2.34,0.35-3.51,0.44
			c-7.82,0.57-10.8,4.27-9.67,11.95c0.8,5.4,2.25,10.65,3.77,15.88c-1.44,0.86-1.58,2.47-1.96,3.82c-1.92,6.74-4.7,13.11-8.56,18.91
			c-12.92,19.37-29.04,34.74-52.44,40.51c-14.86,3.66-29.64,2.58-44.27-1.59c-1.4-0.4-2.67-0.89-4.23-0.04
			c-18.36,9.98-37.94,17.27-56.92,25.88C200.72,562.11,196.96,562.78,194.27,565.55z"/>
		<path class="st4" d="M341.35,588.99c20.42-3.8,42.99,8.52,48.67,26.57C374.46,619.41,344.41,609.86,341.35,588.99z"/>
		<path class="st2" d="M386.35,432.19c-23.47-3.46-44.54,2.06-63.29,16.35c0.52,2.26,2.5,2.66,3.17,4.14
			c2.3,3.2,3.31,6.87,3.73,10.73c0.37,3.32-1.67,5.51-4.78,4.67c-9.18-2.49-18.57-3.77-27.94-5.14c-3.42-0.5-2.55-2.97-3.02-4.9
			c0.25-0.28,0.4-0.58,0.64-0.69c12.71-5.94,24.85-12.79,36.81-20.2c18.03-11.17,38.24-12.65,58.95-9.69
			c0.73,1.69,0.01,3.18-0.34,4.71C388.93,432.9,387.63,432.1,386.35,432.19z M304.82,458.04c6.77,1.55,13.15,3.13,19.76,4.66
			c-0.41-3.57-1.51-6.37-3.84-8.57c-1.13-1.06-2.21-2.4-4.15-1.49C312.69,454.49,308.75,456.25,304.82,458.04z"/>
		<path class="st4" d="M406.59,591.43c-8.07,4.44-20.19-0.11-25.43-7.73c-1.17-1.7-0.47-2.57,1.42-3.12
			C390.04,578.37,403.33,580.98,406.59,591.43z"/>
		<path class="st2" d="M382.09,442.13c-3.06-0.44-6.12-0.9-9.23-0.49c-3.05,0.4-6.11,0.76-9.22,1.14c-1.17-1.08-1.51-2.4-1.14-4.41
			c8.02-1.69,16.09-3.19,24.24,0c1.14,3.43,0.82,3.75-3.59,3.46c-0.22-0.2-0.43-0.18-0.63,0.06
			C382.39,441.99,382.25,442.07,382.09,442.13z"/>
		<path class="st2" d="M345.11,452.01c3.26,0.55,5.31,3.47,4.73,6.72c-0.58,3.25-3.59,5.41-6.76,4.83
			c-3.07-0.56-5.35-3.82-4.82-6.89C338.82,453.46,341.77,451.45,345.11,452.01z"/>
		<path class="st3" d="M382.52,441.89c0.2-0.25,0.41-0.27,0.63-0.06c-0.01,0-0.31,0.23-0.31,0.23L382.52,441.89z"/>
		<path class="st5" d="M304.82,458.04c3.93-1.79,7.87-3.55,11.77-5.39c1.94-0.92,3.03,0.42,4.15,1.49c2.33,2.2,3.43,5,3.84,8.57
			C317.97,461.17,311.59,459.59,304.82,458.04z"/>
	</g>
	<g>
		<g class="st6">
			<path class="st7" d="M494.84,992.07c-0.81-0.84-1.22-2.01-1.22-3.5v-7.62c0-1.51,0.41-2.68,1.22-3.51c0.81-0.83,2-1.25,3.56-1.25
				c1.57,0,2.76,0.42,3.57,1.25s1.22,2,1.22,3.52v7.62c0,1.51-0.41,2.68-1.22,3.51s-2,1.25-3.56,1.25
				C496.84,993.32,495.65,992.9,494.84,992.07z M500.52,990.69c0.45-0.5,0.67-1.2,0.67-2.13v-7.62c0-0.93-0.23-1.64-0.67-2.13
				c-0.45-0.49-1.15-0.74-2.1-0.74s-1.65,0.25-2.1,0.74c-0.45,0.49-0.67,1.2-0.67,2.13v7.62c0,0.92,0.23,1.63,0.67,2.13
				c0.45,0.5,1.15,0.74,2.1,0.74S500.07,991.18,500.52,990.69z"/>
			<path class="st7" d="M507.63,992.07c-0.81-0.84-1.22-2.01-1.22-3.5v-7.62c0-1.51,0.41-2.68,1.22-3.51c0.81-0.83,2-1.25,3.56-1.25
				c1.57,0,2.76,0.42,3.57,1.25s1.22,2,1.22,3.52v7.62c0,1.51-0.41,2.68-1.22,3.51s-2,1.25-3.56,1.25
				C509.64,993.32,508.45,992.9,507.63,992.07z M513.31,990.69c0.45-0.5,0.67-1.2,0.67-2.13v-7.62c0-0.93-0.23-1.64-0.67-2.13
				c-0.45-0.49-1.15-0.74-2.1-0.74s-1.65,0.25-2.1,0.74c-0.45,0.49-0.67,1.2-0.67,2.13v7.62c0,0.92,0.23,1.63,0.67,2.13
				c0.45,0.5,1.15,0.74,2.1,0.74S512.86,991.18,513.31,990.69z"/>
			<path class="st7" d="M518.96,991.45l6.08-8.02c0.38-0.49,0.67-0.99,0.88-1.49c0.21-0.5,0.31-0.95,0.31-1.36v-0.02
				c0-0.78-0.23-1.39-0.68-1.82s-1.1-0.64-1.93-0.64c-0.78,0-1.42,0.23-1.9,0.69c-0.48,0.46-0.77,1.12-0.88,1.97v0.01h-2.09v-0.01
				c0.14-0.96,0.42-1.78,0.85-2.46c0.43-0.68,0.98-1.2,1.65-1.56s1.46-0.54,2.34-0.54c1,0,1.85,0.17,2.56,0.51
				c0.71,0.34,1.25,0.84,1.61,1.49c0.37,0.65,0.55,1.44,0.55,2.36v0.01c0,0.55-0.14,1.16-0.42,1.82c-0.28,0.66-0.66,1.32-1.15,1.98
				l-5.2,6.86h6.86v1.89h-9.45V991.45z"/>
			<path class="st7" d="M532.39,992.07c-0.81-0.84-1.22-2.01-1.22-3.5v-7.62c0-1.51,0.41-2.68,1.22-3.51c0.81-0.83,2-1.25,3.56-1.25
				c1.57,0,2.76,0.42,3.57,1.25s1.22,2,1.22,3.52v7.62c0,1.51-0.41,2.68-1.22,3.51s-2,1.25-3.56,1.25
				C534.39,993.32,533.2,992.9,532.39,992.07z M538.06,990.69c0.45-0.5,0.67-1.2,0.67-2.13v-7.62c0-0.93-0.23-1.64-0.67-2.13
				c-0.45-0.49-1.15-0.74-2.1-0.74s-1.65,0.25-2.1,0.74c-0.45,0.49-0.67,1.2-0.67,2.13v7.62c0,0.92,0.23,1.63,0.67,2.13
				c0.45,0.5,1.15,0.74,2.1,0.74S537.61,991.18,538.06,990.69z"/>
			<path class="st7" d="M546.39,992.83c-0.66-0.33-1.19-0.81-1.6-1.44c-0.41-0.63-0.69-1.39-0.82-2.27v-0.01h2.01v0.01
				c0.09,0.73,0.37,1.29,0.84,1.69c0.47,0.4,1.08,0.6,1.83,0.6c0.86,0,1.53-0.26,2-0.78c0.47-0.52,0.71-1.26,0.71-2.21v-1.93
				c0-0.93-0.22-1.65-0.65-2.16c-0.43-0.51-1.04-0.77-1.83-0.77c-0.53,0-1.03,0.14-1.5,0.43s-0.88,0.7-1.25,1.23h-1.8v-8.83h8.54
				v1.89h-6.54v4.4c0.36-0.33,0.76-0.59,1.21-0.77s0.91-0.27,1.4-0.27c0.93,0,1.73,0.19,2.39,0.57s1.17,0.93,1.51,1.65
				s0.51,1.6,0.51,2.62v1.93c0,1.04-0.18,1.92-0.55,2.66c-0.37,0.73-0.91,1.29-1.61,1.68c-0.71,0.38-1.56,0.58-2.55,0.58
				C547.8,993.32,547.05,993.16,546.39,992.83z"/>
			<path class="st7" d="M562.87,984.83l-0.01,0.42c-0.18,0.35-0.48,0.6-0.91,0.77c-0.43,0.17-0.93,0.25-1.52,0.25
				c-0.83,0-1.56-0.2-2.2-0.61s-1.13-0.98-1.48-1.72c-0.35-0.74-0.53-1.6-0.53-2.58v-0.01c0-1.08,0.18-2.01,0.55-2.78
				s0.9-1.35,1.6-1.75c0.7-0.4,1.55-0.6,2.53-0.6c0.98,0,1.83,0.2,2.52,0.61c0.7,0.41,1.23,1,1.6,1.78c0.36,0.78,0.55,1.71,0.55,2.8
				v0.01c0,0.6-0.08,1.24-0.23,1.92c-0.15,0.68-0.37,1.35-0.66,2.02c-0.05,0.1-0.09,0.2-0.14,0.31c-0.05,0.1-0.1,0.21-0.15,0.31
				l-3.57,7.18h-2.19L562.87,984.83z M562.89,983.59c0.46-0.55,0.69-1.32,0.69-2.32v-0.01c0-0.99-0.23-1.76-0.7-2.31
				c-0.47-0.55-1.12-0.82-1.97-0.82c-0.85,0-1.51,0.27-1.98,0.82s-0.7,1.32-0.7,2.32v0.01c0,1,0.23,1.77,0.7,2.32
				s1.12,0.82,1.98,0.82C561.77,984.41,562.43,984.14,562.89,983.59z"/>
		</g>
	</g>
	<g>
		<g>
			<path class="st2" d="M475.07,535.06c-7.25,0-13.68-1.48-19.3-4.44c-5.62-2.96-10.04-7.06-13.24-12.31
				c-3.21-5.25-4.81-11.2-4.81-17.87c0-6.75,1.6-12.7,4.81-17.87c3.21-5.16,7.62-9.25,13.24-12.24c5.62-3,12.06-4.5,19.3-4.5
				c7.08,0,13.26,1.48,18.55,4.44c5.29,2.96,9.1,7.14,11.43,12.56l-14.99,8.25c-1.83-3.17-4.04-5.48-6.62-6.93
				c-2.58-1.46-5.42-2.19-8.5-2.19c-3.25,0-6.21,0.73-8.87,2.19c-2.67,1.46-4.79,3.56-6.37,6.31c-1.58,2.75-2.37,6.08-2.37,10
				c0,3.92,0.79,7.27,2.37,10.06c1.58,2.79,3.71,4.92,6.37,6.37c2.67,1.46,5.62,2.19,8.87,2.19c3.08,0,5.91-0.73,8.5-2.19
				c2.58-1.46,4.79-3.81,6.62-7.06l14.99,8.25c-2.33,5.33-6.14,9.5-11.43,12.5C488.34,533.56,482.15,535.06,475.07,535.06z"/>
			<path class="st2" d="M578.75,482.08c-3.09-5.16-7.27-9.15-12.56-11.99c-5.29-2.83-11.23-4.24-17.8-4.24
				c-6.83,0-12.98,1.48-18.43,4.43c-5.45,2.96-9.71,7.06-12.74,12.31c-3.04,5.24-4.56,11.2-4.56,17.86c0,6.66,1.58,12.6,4.75,17.8
				c3.16,5.21,7.62,9.31,13.36,12.31c5.76,3,12.46,4.49,20.12,4.49c6.08,0,11.45-0.93,16.11-2.81c4.67-1.87,8.54-4.55,11.63-8.06
				l-10.37-11.25c-2.25,2.17-4.73,3.8-7.44,4.88c-2.7,1.09-5.81,1.63-9.31,1.63c-4.08,0-7.58-0.73-10.5-2.19
				c-2.92-1.46-5.2-3.56-6.87-6.31c-0.93-1.51-1.58-3.18-2-5H583c0.08-0.83,0.17-1.73,0.25-2.69c0.08-0.96,0.12-1.81,0.12-2.56
				C583.37,493.45,581.83,487.25,578.75,482.08z M531.91,494.58c0.32-2.09,0.94-3.99,1.86-5.68c1.41-2.62,3.39-4.66,5.93-6.12
				c2.54-1.46,5.47-2.19,8.81-2.19c3.33,0,6.25,0.73,8.75,2.19c2.5,1.46,4.46,3.48,5.87,6.06c0.93,1.71,1.55,3.63,1.82,5.75H531.91z
				"/>
			<path class="st2" d="M659.75,482.21c-2.95-5.16-6.96-9.18-11.99-12.05c-5.04-2.87-10.77-4.31-17.18-4.31
				c-5.59,0-10.5,1.25-14.75,3.75c-1.99,1.17-3.8,2.64-5.37,4.39v-32.63h-19.49v92.71h18.62v-7.7c1.7,2.06,3.67,3.72,5.93,5.02
				c4.29,2.46,9.31,3.68,15.06,3.68c6.41,0,12.13-1.43,17.18-4.31c5.04-2.87,9.04-6.89,11.99-12.06c2.95-5.16,4.44-11.24,4.44-18.24
				S662.71,487.38,659.75,482.21z M642.14,510.45c-1.55,2.83-3.59,4.97-6.13,6.43c-2.54,1.46-5.43,2.19-8.67,2.19
				c-3.26,0-6.17-0.73-8.75-2.19c-2.58-1.46-4.64-3.6-6.18-6.43c-1.54-2.84-2.31-6.17-2.31-10c0-3.91,0.77-7.25,2.31-10
				c1.54-2.75,3.6-4.85,6.18-6.31c2.58-1.46,5.5-2.19,8.75-2.19c3.25,0,6.14,0.73,8.67,2.19c2.54,1.46,4.58,3.56,6.13,6.31
				c1.54,2.75,2.31,6.09,2.31,10C644.45,504.29,643.68,507.61,642.14,510.45z"/>
			<path class="st2" d="M737.88,482.08c-3.09-5.16-7.27-9.15-12.56-11.99c-5.28-2.83-11.23-4.24-17.8-4.24
				c-6.83,0-12.98,1.48-18.43,4.43c-5.45,2.96-9.71,7.06-12.74,12.31c-3.04,5.24-4.56,11.2-4.56,17.86c0,6.66,1.58,12.6,4.75,17.8
				c3.17,5.21,7.62,9.31,13.37,12.31c5.75,3,12.45,4.49,20.11,4.49c6.08,0,11.45-0.93,16.12-2.81c4.66-1.87,8.53-4.55,11.62-8.06
				l-10.37-11.25c-2.25,2.17-4.73,3.8-7.44,4.88c-2.7,1.09-5.81,1.63-9.31,1.63c-4.08,0-7.58-0.73-10.5-2.19
				c-2.92-1.46-5.2-3.56-6.87-6.31c-0.93-1.51-1.58-3.18-2-5h50.85c0.08-0.83,0.17-1.73,0.25-2.69c0.09-0.96,0.12-1.81,0.12-2.56
				C742.5,493.45,740.96,487.25,737.88,482.08z M691.04,494.58c0.32-2.09,0.94-3.99,1.86-5.68c1.41-2.62,3.39-4.66,5.93-6.12
				c2.54-1.46,5.47-2.19,8.81-2.19c3.33,0,6.25,0.73,8.75,2.19c2.5,1.46,4.46,3.48,5.87,6.06c0.93,1.71,1.55,3.63,1.82,5.75H691.04z
				"/>
			<path class="st2" d="M805.2,473.09c-5.67-4.83-13.62-7.24-23.86-7.24c-5.34,0-10.59,0.69-15.75,2.06
				c-5.17,1.38-9.58,3.4-13.25,6.07l6.88,13.61c2.5-1.91,5.47-3.43,8.93-4.55c3.45-1.13,6.97-1.69,10.56-1.69
				c5.25,0,9.14,1.17,11.68,3.5c2.54,2.34,3.81,5.59,3.81,9.75v0.12h-15.36c-6.92,0-12.5,0.84-16.74,2.5
				c-4.25,1.66-7.36,4.02-9.31,7.05c-1.96,3.04-2.94,6.52-2.94,10.44c0,3.83,1.02,7.29,3.06,10.37c2.05,3.08,4.94,5.52,8.68,7.3
				c3.75,1.8,8.21,2.69,13.37,2.69c5.92,0,10.75-1.14,14.5-3.43c2.54-1.55,4.54-3.52,6-5.93v8.37h18.24V495.7
				C813.7,485.46,810.87,477.92,805.2,473.09z M788.64,519.7c-2.62,1.49-5.6,2.25-8.93,2.25c-3.34,0-5.98-0.73-7.94-2.19
				c-1.96-1.46-2.94-3.43-2.94-5.93c0-2.25,0.85-4.13,2.56-5.62c1.71-1.5,4.85-2.25,9.43-2.25h13.37v6.87
				C793.12,515.91,791.27,518.19,788.64,519.7z"/>
		</g>
		<g>
			<g>
				<path class="st2" d="M441.29,571.75c-0.76-0.41-1.33-1-1.73-1.78c-0.4-0.78-0.6-1.72-0.6-2.82v-3.83c0-1.1,0.2-2.04,0.6-2.82
					c0.4-0.78,0.97-1.37,1.73-1.78c0.76-0.41,1.67-0.62,2.73-0.62c0.88,0,1.66,0.19,2.35,0.57c0.69,0.38,1.26,0.93,1.72,1.65
					s0.76,1.59,0.94,2.61h-2.73c-0.1-0.46-0.26-0.86-0.48-1.18c-0.21-0.33-0.47-0.58-0.78-0.75c-0.3-0.17-0.65-0.26-1.02-0.26
					c-0.49,0-0.91,0.1-1.26,0.3c-0.35,0.2-0.61,0.5-0.79,0.88s-0.27,0.85-0.27,1.4v3.83c0,0.54,0.09,1.01,0.27,1.39
					c0.18,0.38,0.45,0.68,0.79,0.88s0.77,0.3,1.26,0.3c0.38,0,0.73-0.08,1.04-0.25s0.57-0.42,0.78-0.75
					c0.21-0.33,0.37-0.72,0.46-1.19h2.73c-0.18,1.02-0.5,1.89-0.95,2.61s-1.02,1.27-1.71,1.65c-0.69,0.38-1.47,0.57-2.35,0.57
					C442.95,572.36,442.04,572.16,441.29,571.75z"/>
				<path class="st2" d="M451.23,558.25h2.63v13.97h-2.63V558.25z M452.18,558.25h8.41v2.54h-8.41V558.25z M452.18,564.01h7.35v2.54
					h-7.35V564.01z M452.18,569.68h8.41v2.54h-8.41V569.68z"/>
				<path class="st2" d="M462.8,558.25h3.22l5.2,10.71l-0.23,0.25v-10.96h2.52v13.96h-3.24l-5.18-10.54l0.23-0.25v10.79h-2.52
					V558.25z"/>
				<path class="st2" d="M474.46,558.25h10.24v2.54h-10.24V558.25z M478.27,559.39h2.63v12.83h-2.63V559.39z"/>
				<path class="st2" d="M485.66,558.24h2.63v13.98h-2.63V558.24z M486.71,564.06h4.86c0.27,0,0.51-0.07,0.71-0.2
					s0.36-0.33,0.48-0.58c0.11-0.25,0.17-0.54,0.18-0.87c0-0.33-0.06-0.62-0.17-0.87c-0.11-0.25-0.27-0.44-0.48-0.58
					c-0.21-0.13-0.45-0.2-0.72-0.2h-4.86v-2.54h5.07c0.77,0,1.44,0.17,2.03,0.52c0.58,0.35,1.03,0.83,1.36,1.46
					c0.32,0.63,0.48,1.36,0.48,2.2s-0.16,1.56-0.48,2.2c-0.32,0.63-0.77,1.12-1.36,1.46c-0.59,0.35-1.26,0.52-2.02,0.52h-5.07
					V564.06z M489.65,566.17l2.82-0.44l3.77,6.5h-3.19L489.65,566.17z"/>
				<path class="st2" d="M500.43,571.72c-0.77-0.43-1.37-1.03-1.79-1.81s-0.63-1.68-0.63-2.71v-3.96c0-1.03,0.21-1.93,0.63-2.71
					s1.02-1.38,1.79-1.81s1.66-0.64,2.68-0.64c1.01,0,1.9,0.21,2.68,0.64s1.37,1.03,1.79,1.81s0.63,1.68,0.63,2.71v3.96
					c0,1.02-0.21,1.93-0.63,2.71s-1.02,1.38-1.79,1.81s-1.66,0.64-2.68,0.64C502.1,572.36,501.2,572.15,500.43,571.72z
					 M504.36,569.43c0.36-0.2,0.64-0.49,0.83-0.86c0.2-0.37,0.29-0.8,0.29-1.29v-4.09c0-0.49-0.1-0.92-0.29-1.29
					c-0.2-0.37-0.47-0.66-0.83-0.86c-0.36-0.2-0.77-0.3-1.25-0.3s-0.89,0.1-1.25,0.3c-0.36,0.2-0.64,0.49-0.83,0.86
					c-0.2,0.37-0.29,0.8-0.29,1.29v4.09c0,0.49,0.1,0.92,0.29,1.29c0.2,0.37,0.47,0.66,0.83,0.86s0.78,0.3,1.25,0.3
					S504,569.63,504.36,569.43z"/>
				<path class="st2" d="M515.89,558.25h2.63v13.97h-2.63V558.25z M517.22,569.68h3.35c0.87,0,1.53-0.21,2.01-0.63
					c0.47-0.42,0.71-1.01,0.71-1.77v-4.11c0-0.76-0.24-1.35-0.71-1.77c-0.47-0.42-1.14-0.63-2.01-0.63h-3.35v-2.54h3.3
					c1.17,0,2.16,0.2,2.98,0.59s1.45,0.96,1.88,1.71s0.64,1.65,0.64,2.71v3.96c0,1.01-0.21,1.88-0.62,2.63
					c-0.41,0.75-1.03,1.33-1.86,1.75c-0.83,0.42-1.84,0.63-3.04,0.63h-3.29V569.68z"/>
				<path class="st2" d="M528.61,558.25h2.63v13.97h-2.63V558.25z M529.56,558.25h8.41v2.54h-8.41V558.25z M529.56,564.01h7.35v2.54
					h-7.35V564.01z M529.56,569.68h8.41v2.54h-8.41V569.68z"/>
				<path class="st2" d="M545.26,558.25h2.63v13.97h-2.63V558.25z M546.22,558.25h8.41v2.54h-8.41V558.25z M546.22,564.01h7.35v2.54
					h-7.35V564.01z M546.22,569.68h8.41v2.54h-8.41V569.68z"/>
				<path class="st2" d="M559.27,572.16c-0.64-0.13-1.24-0.33-1.8-0.59c-0.56-0.26-1.06-0.57-1.5-0.94l1.22-2.17
					c0.54,0.44,1.16,0.78,1.87,1.02c0.7,0.24,1.43,0.36,2.17,0.36c0.86,0,1.52-0.15,2-0.44c0.47-0.29,0.71-0.7,0.71-1.23v-0.01
					c0-0.37-0.11-0.67-0.32-0.88c-0.21-0.22-0.49-0.38-0.83-0.48c-0.34-0.1-0.78-0.2-1.31-0.28c-0.02-0.01-0.04-0.01-0.05-0.01
					c-0.02,0-0.03,0-0.05-0.01l-0.21-0.03c-0.94-0.15-1.71-0.33-2.33-0.55s-1.14-0.61-1.57-1.16c-0.43-0.55-0.64-1.34-0.64-2.36
					v-0.01c0-0.9,0.2-1.67,0.61-2.32c0.4-0.64,0.99-1.13,1.76-1.47c0.77-0.34,1.7-0.5,2.79-0.5c0.5,0,1.01,0.06,1.53,0.17
					c0.52,0.12,1.03,0.28,1.53,0.5c0.5,0.22,0.97,0.48,1.42,0.79l-1.11,2.23c-0.54-0.37-1.1-0.66-1.69-0.86
					c-0.59-0.21-1.15-0.31-1.69-0.31c-0.81,0-1.43,0.13-1.87,0.4c-0.44,0.27-0.66,0.64-0.66,1.12v0.01c0,0.4,0.12,0.72,0.35,0.96
					c0.23,0.23,0.52,0.41,0.86,0.51c0.34,0.11,0.82,0.22,1.43,0.35c0.03,0.01,0.05,0.01,0.08,0.01c0.03,0,0.05,0.01,0.08,0.01
					c0.04,0.01,0.08,0.01,0.11,0.02c0.04,0.01,0.07,0.02,0.11,0.02c0.88,0.17,1.62,0.38,2.21,0.63c0.59,0.25,1.09,0.64,1.48,1.19
					c0.4,0.55,0.6,1.3,0.6,2.24v0.02c0,0.89-0.21,1.65-0.63,2.29c-0.42,0.63-1.02,1.12-1.82,1.45s-1.76,0.5-2.88,0.5
					C560.56,572.36,559.91,572.3,559.27,572.16z"/>
				<path class="st2" d="M566.83,558.25h10.24v2.54h-10.24V558.25z M570.64,559.39h2.63v12.83h-2.63V559.39z"/>
				<path class="st2" d="M580.17,571.75c-0.76-0.41-1.34-1-1.74-1.78s-0.6-1.72-0.6-2.81v-8.92h2.63v8.99c0,0.8,0.21,1.42,0.64,1.86
					c0.43,0.44,1.03,0.66,1.82,0.66c0.79,0,1.4-0.22,1.83-0.66c0.43-0.44,0.65-1.06,0.65-1.86v-8.99h2.63v8.92
					c0,1.1-0.2,2.03-0.6,2.81s-0.98,1.37-1.75,1.78c-0.77,0.41-1.69,0.61-2.76,0.61S580.94,572.16,580.17,571.75z"/>
				<path class="st2" d="M590.73,558.25h2.63v13.97h-2.63V558.25z M592.06,569.68h3.35c0.87,0,1.54-0.21,2.01-0.63
					c0.47-0.42,0.71-1.01,0.71-1.77v-4.11c0-0.76-0.24-1.35-0.71-1.77c-0.47-0.42-1.14-0.63-2.01-0.63h-3.35v-2.54h3.3
					c1.17,0,2.16,0.2,2.98,0.59s1.45,0.96,1.88,1.71c0.43,0.75,0.64,1.65,0.64,2.71v3.96c0,1.01-0.21,1.88-0.62,2.63
					c-0.41,0.75-1.03,1.33-1.86,1.75c-0.83,0.42-1.84,0.63-3.04,0.63h-3.29V569.68z"/>
				<path class="st2" d="M605.59,571.72c-0.77-0.43-1.37-1.03-1.79-1.81s-0.63-1.68-0.63-2.71v-3.96c0-1.03,0.21-1.93,0.63-2.71
					s1.02-1.38,1.79-1.81c0.77-0.43,1.66-0.64,2.68-0.64s1.9,0.21,2.68,0.64c0.77,0.43,1.37,1.03,1.79,1.81s0.63,1.68,0.63,2.71
					v3.96c0,1.02-0.21,1.93-0.63,2.71s-1.02,1.38-1.79,1.81c-0.77,0.43-1.66,0.64-2.68,0.64S606.36,572.15,605.59,571.72z
					 M609.52,569.43c0.36-0.2,0.64-0.49,0.83-0.86c0.2-0.37,0.29-0.8,0.29-1.29v-4.09c0-0.49-0.1-0.92-0.29-1.29
					c-0.2-0.37-0.47-0.66-0.83-0.86c-0.36-0.2-0.78-0.3-1.25-0.3c-0.47,0-0.89,0.1-1.25,0.3c-0.36,0.2-0.64,0.49-0.83,0.86
					c-0.2,0.37-0.29,0.8-0.29,1.29v4.09c0,0.49,0.1,0.92,0.29,1.29c0.2,0.37,0.47,0.66,0.83,0.86c0.36,0.2,0.78,0.3,1.25,0.3
					C608.74,569.73,609.16,569.63,609.52,569.43z"/>
				<path class="st2" d="M618.4,572.16c-0.64-0.13-1.24-0.33-1.8-0.59c-0.56-0.26-1.06-0.57-1.5-0.94l1.22-2.17
					c0.54,0.44,1.16,0.78,1.86,1.02c0.7,0.24,1.43,0.36,2.17,0.36c0.86,0,1.52-0.15,2-0.44c0.47-0.29,0.71-0.7,0.71-1.23v-0.01
					c0-0.37-0.11-0.67-0.32-0.88c-0.21-0.22-0.49-0.38-0.83-0.48c-0.34-0.1-0.78-0.2-1.31-0.28c-0.02-0.01-0.04-0.01-0.05-0.01
					c-0.02,0-0.03,0-0.05-0.01l-0.21-0.03c-0.94-0.15-1.71-0.33-2.33-0.55c-0.61-0.22-1.14-0.61-1.57-1.16
					c-0.43-0.55-0.64-1.34-0.64-2.36v-0.01c0-0.9,0.2-1.67,0.61-2.32s0.99-1.13,1.76-1.47s1.7-0.5,2.79-0.5
					c0.5,0,1.01,0.06,1.53,0.17c0.52,0.12,1.03,0.28,1.53,0.5s0.97,0.48,1.42,0.79l-1.11,2.23c-0.54-0.37-1.1-0.66-1.69-0.86
					c-0.59-0.21-1.15-0.31-1.69-0.31c-0.81,0-1.43,0.13-1.87,0.4c-0.44,0.27-0.66,0.64-0.66,1.12v0.01c0,0.4,0.12,0.72,0.35,0.96
					c0.23,0.23,0.52,0.41,0.86,0.51c0.34,0.11,0.82,0.22,1.43,0.35c0.03,0.01,0.05,0.01,0.08,0.01s0.05,0.01,0.08,0.01
					c0.04,0.01,0.08,0.01,0.11,0.02c0.04,0.01,0.07,0.02,0.11,0.02c0.88,0.17,1.62,0.38,2.21,0.63c0.59,0.25,1.09,0.64,1.49,1.19
					c0.4,0.55,0.6,1.3,0.6,2.24v0.02c0,0.89-0.21,1.65-0.63,2.29c-0.42,0.63-1.02,1.12-1.82,1.45s-1.76,0.5-2.88,0.5
					C619.68,572.36,619.03,572.3,618.4,572.16z"/>
				<path class="st2" d="M632.97,558.25h2.63v13.97h-2.63V558.25z M634.3,569.68h3.35c0.87,0,1.53-0.21,2.01-0.63
					c0.47-0.42,0.71-1.01,0.71-1.77v-4.11c0-0.76-0.24-1.35-0.71-1.77c-0.47-0.42-1.14-0.63-2.01-0.63h-3.35v-2.54h3.3
					c1.17,0,2.16,0.2,2.98,0.59s1.45,0.96,1.88,1.71c0.43,0.75,0.64,1.65,0.64,2.71v3.96c0,1.01-0.21,1.88-0.62,2.63
					s-1.03,1.33-1.86,1.75c-0.83,0.42-1.84,0.63-3.04,0.63h-3.29V569.68z"/>
				<path class="st2" d="M645.69,558.25h2.63v13.97h-2.63V558.25z M646.64,558.25h8.41v2.54h-8.41V558.25z M646.64,564.01h7.35v2.54
					h-7.35V564.01z M646.64,569.68h8.41v2.54h-8.41V569.68z"/>
				<path class="st2" d="M439.25,581.86h2.63v13.97h-2.63V581.86z M440.4,593.3h4.46c0.6,0,1.07-0.15,1.4-0.44
					c0.33-0.29,0.5-0.7,0.5-1.23v-0.03c0-0.35-0.07-0.65-0.22-0.9s-0.36-0.44-0.65-0.57c-0.29-0.13-0.63-0.2-1.02-0.2h-4.46v-2.54
					h4.46c0.54,0,0.97-0.14,1.26-0.41c0.3-0.28,0.45-0.66,0.45-1.16c0-0.45-0.15-0.8-0.45-1.05c-0.3-0.25-0.72-0.38-1.26-0.38h-4.46
					v-2.54h4.55c0.9,0,1.68,0.15,2.32,0.45c0.64,0.3,1.13,0.73,1.46,1.3c0.33,0.57,0.5,1.25,0.5,2.04c0,0.54-0.11,1.03-0.32,1.45
					c-0.21,0.42-0.53,0.76-0.94,1.03c-0.41,0.27-0.9,0.45-1.48,0.55c0.61,0.08,1.14,0.27,1.58,0.56s0.77,0.67,1,1.14
					s0.34,1.01,0.34,1.62v0.03c0,0.8-0.17,1.49-0.5,2.06s-0.83,1-1.47,1.3c-0.64,0.3-1.42,0.45-2.32,0.45h-4.71V593.3z"/>
				<path class="st2" d="M454.3,595.84h-2.73v-13.97h2.73V595.84z"/>
				<path class="st2" d="M459.12,595.34c-0.77-0.43-1.37-1.03-1.79-1.81s-0.63-1.68-0.63-2.71v-3.96c0-1.03,0.21-1.93,0.63-2.71
					s1.02-1.38,1.79-1.81s1.66-0.64,2.68-0.64c1.01,0,1.9,0.21,2.68,0.64s1.37,1.03,1.79,1.81s0.63,1.68,0.63,2.71v3.96
					c0,1.02-0.21,1.93-0.63,2.71s-1.02,1.38-1.79,1.81s-1.66,0.64-2.68,0.64C460.79,595.98,459.89,595.77,459.12,595.34z
					 M463.05,593.05c0.36-0.2,0.64-0.49,0.83-0.86c0.2-0.37,0.29-0.8,0.29-1.29v-4.09c0-0.49-0.1-0.92-0.29-1.29
					c-0.2-0.37-0.47-0.66-0.83-0.86c-0.36-0.2-0.77-0.3-1.25-0.3s-0.89,0.1-1.25,0.3c-0.36,0.2-0.64,0.49-0.83,0.86
					c-0.2,0.37-0.29,0.8-0.29,1.29v4.09c0,0.49,0.1,0.92,0.29,1.29c0.2,0.37,0.47,0.66,0.83,0.86s0.78,0.3,1.25,0.3
					S462.69,593.25,463.05,593.05z"/>
				<path class="st2" d="M469.49,581.86h2.63v13.97h-2.63V581.86z M470.82,593.3h3.35c0.87,0,1.53-0.21,2.01-0.63
					c0.47-0.42,0.71-1.01,0.71-1.77v-4.11c0-0.76-0.24-1.35-0.71-1.77c-0.47-0.42-1.14-0.63-2.01-0.63h-3.35v-2.54h3.3
					c1.17,0,2.16,0.2,2.98,0.59s1.45,0.96,1.88,1.71s0.64,1.65,0.64,2.71v3.96c0,1.01-0.21,1.88-0.62,2.63
					c-0.41,0.75-1.03,1.33-1.86,1.75c-0.83,0.42-1.84,0.63-3.04,0.63h-3.29V593.3z"/>
				<path class="st2" d="M484.75,595.84h-2.73v-13.97h2.73V595.84z"/>
				<path class="st2" d="M485.99,581.86h2.71l2.97,9.32l2.97-9.32h2.71l-4.65,13.97h-2.06L485.99,581.86z"/>
				<path class="st2" d="M498.79,581.86h2.63v13.97h-2.63V581.86z M499.74,581.86h8.41v2.54h-8.41V581.86z M499.74,587.63h7.35v2.54
					h-7.35V587.63z M499.74,593.3h8.41v2.54h-8.41V593.3z"/>
				<path class="st2" d="M510.35,581.85h2.63v13.98h-2.63V581.85z M511.4,587.68h4.86c0.27,0,0.51-0.07,0.71-0.2
					s0.36-0.33,0.48-0.58c0.11-0.25,0.17-0.54,0.18-0.87c0-0.33-0.06-0.62-0.17-0.87c-0.11-0.25-0.27-0.44-0.48-0.58
					c-0.21-0.13-0.45-0.2-0.72-0.2h-4.86v-2.54h5.07c0.77,0,1.44,0.17,2.03,0.52c0.58,0.35,1.03,0.83,1.36,1.46
					c0.32,0.63,0.48,1.36,0.48,2.2s-0.16,1.56-0.48,2.2c-0.32,0.63-0.77,1.12-1.36,1.46c-0.59,0.35-1.26,0.52-2.02,0.52h-5.07
					V587.68z M514.34,589.78l2.82-0.44l3.77,6.5h-3.19L514.34,589.78z"/>
				<path class="st2" d="M525.42,595.78c-0.64-0.13-1.24-0.33-1.8-0.59c-0.56-0.26-1.06-0.57-1.5-0.94l1.22-2.17
					c0.54,0.44,1.16,0.78,1.86,1.02c0.7,0.24,1.43,0.36,2.17,0.36c0.86,0,1.52-0.15,2-0.44c0.47-0.29,0.71-0.7,0.71-1.23v-0.01
					c0-0.37-0.11-0.67-0.32-0.88c-0.21-0.22-0.49-0.38-0.83-0.48c-0.34-0.1-0.78-0.2-1.31-0.28c-0.02-0.01-0.04-0.01-0.05-0.01
					s-0.03,0-0.05-0.01l-0.21-0.03c-0.94-0.15-1.71-0.33-2.33-0.55c-0.62-0.22-1.14-0.61-1.57-1.16c-0.43-0.55-0.64-1.34-0.64-2.36
					v-0.01c0-0.9,0.2-1.67,0.61-2.32c0.4-0.64,0.99-1.13,1.76-1.47c0.77-0.34,1.7-0.5,2.79-0.5c0.5,0,1.01,0.06,1.53,0.17
					c0.52,0.12,1.03,0.28,1.53,0.5c0.5,0.22,0.97,0.48,1.42,0.79l-1.11,2.23c-0.54-0.37-1.1-0.66-1.69-0.86
					c-0.59-0.21-1.15-0.31-1.69-0.31c-0.81,0-1.43,0.13-1.87,0.4c-0.44,0.27-0.66,0.64-0.66,1.12v0.01c0,0.4,0.12,0.72,0.35,0.96
					c0.23,0.23,0.52,0.41,0.86,0.51c0.34,0.11,0.82,0.22,1.43,0.35c0.03,0.01,0.05,0.01,0.08,0.01c0.03,0,0.05,0.01,0.08,0.01
					c0.04,0.01,0.08,0.01,0.11,0.02c0.04,0.01,0.07,0.02,0.11,0.02c0.88,0.17,1.62,0.38,2.21,0.63c0.59,0.25,1.09,0.64,1.48,1.19
					c0.4,0.55,0.6,1.3,0.6,2.24v0.02c0,0.89-0.21,1.65-0.63,2.29c-0.42,0.63-1.02,1.12-1.82,1.45c-0.8,0.33-1.76,0.5-2.88,0.5
					C526.71,595.98,526.06,595.91,525.42,595.78z"/>
				<path class="st2" d="M537.45,595.84h-2.73v-13.97h2.73V595.84z"/>
				<path class="st2" d="M540.13,581.86h2.63v13.97h-2.63V581.86z M541.46,593.3h3.35c0.87,0,1.53-0.21,2.01-0.63
					c0.47-0.42,0.71-1.01,0.71-1.77v-4.11c0-0.76-0.24-1.35-0.71-1.77c-0.47-0.42-1.14-0.63-2.01-0.63h-3.35v-2.54h3.3
					c1.17,0,2.16,0.2,2.98,0.59s1.45,0.96,1.88,1.71c0.43,0.75,0.64,1.65,0.64,2.71v3.96c0,1.01-0.21,1.88-0.62,2.63
					s-1.03,1.33-1.86,1.75c-0.83,0.42-1.84,0.63-3.04,0.63h-3.29V593.3z"/>
				<path class="st2" d="M556.85,581.86h1.67l5.34,13.97h-2.84l-3.34-9.54l-3.34,9.54h-2.83L556.85,581.86z M554.07,591.06h7.35
					v2.54h-7.35V591.06z"/>
				<path class="st2" d="M565.4,581.86h2.63v13.97h-2.63V581.86z M566.72,593.3h3.35c0.87,0,1.53-0.21,2.01-0.63
					c0.47-0.42,0.71-1.01,0.71-1.77v-4.11c0-0.76-0.24-1.35-0.71-1.77c-0.47-0.42-1.14-0.63-2.01-0.63h-3.35v-2.54h3.3
					c1.17,0,2.16,0.2,2.98,0.59s1.45,0.96,1.88,1.71c0.43,0.75,0.64,1.65,0.64,2.71v3.96c0,1.01-0.21,1.88-0.62,2.63
					s-1.03,1.33-1.86,1.75c-0.83,0.42-1.84,0.63-3.04,0.63h-3.29V593.3z"/>
				<path class="st2" d="M578.12,581.86h2.63v13.97h-2.63V581.86z M579.07,581.86h8.41v2.54h-8.41V581.86z M579.07,587.63h7.35v2.54
					h-7.35V587.63z M579.07,593.3h8.41v2.54h-8.41V593.3z"/>
				<path class="st2" d="M597.33,590.29c-0.37,0.4-0.55,0.96-0.55,1.68c0,0.53,0.2,0.94,0.6,1.23c0.4,0.29,0.96,0.44,1.68,0.44
					c0.7,0,1.3-0.21,1.8-0.62s0.88-1,1.14-1.77s0.39-1.67,0.39-2.7h2.54c0,1.53-0.24,2.85-0.73,3.96c-0.49,1.11-1.2,1.96-2.14,2.56
					s-2.09,0.89-3.43,0.89c-0.91,0-1.69-0.16-2.34-0.47c-0.65-0.31-1.14-0.77-1.48-1.37c-0.34-0.6-0.51-1.32-0.51-2.17
					c0-1.14,0.33-2.05,1-2.74s1.6-1.08,2.8-1.19l0.81,1.65C598.22,589.7,597.69,589.9,597.33,590.29z M597.77,590.28
					c-0.47-0.49-0.86-0.99-1.17-1.5s-0.55-1.02-0.71-1.55c-0.16-0.53-0.24-1.08-0.24-1.64c0-1.22,0.34-2.17,1.03-2.84
					c0.69-0.67,1.66-1,2.91-1c1.25,0,2.22,0.32,2.9,0.97c0.68,0.64,1.02,1.56,1.02,2.73v0.38h-2.63v-0.38c0-0.56-0.11-1-0.34-1.32
					c-0.22-0.31-0.54-0.47-0.95-0.47c-0.47,0-0.84,0.17-1.1,0.5c-0.26,0.34-0.39,0.81-0.39,1.43c0,0.34,0.08,0.72,0.25,1.14
					c0.17,0.42,0.41,0.87,0.73,1.34c0.32,0.47,0.7,0.95,1.14,1.44l5.76,6.33H603L597.77,590.28z"/>
				<path class="st2" d="M612.5,581.86h2.63v13.97h-2.63V581.86z M613.45,581.86h8.41v2.54h-8.41V581.86z M613.45,587.63h7.35v2.54
					h-7.35V587.63z M613.45,593.3h8.41v2.54h-8.41V593.3z"/>
				<path class="st2" d="M624.06,581.86h2.63v13.97h-2.63V581.86z M625.39,593.3h3.35c0.87,0,1.53-0.21,2.01-0.63
					c0.47-0.42,0.71-1.01,0.71-1.77v-4.11c0-0.76-0.24-1.35-0.71-1.77c-0.47-0.42-1.14-0.63-2.01-0.63h-3.35v-2.54h3.3
					c1.17,0,2.16,0.2,2.98,0.59s1.45,0.96,1.88,1.71c0.43,0.75,0.64,1.65,0.64,2.71v3.96c0,1.01-0.21,1.88-0.62,2.63
					s-1.03,1.33-1.86,1.75c-0.83,0.42-1.84,0.63-3.04,0.63h-3.29V593.3z"/>
				<path class="st2" d="M638.92,595.37c-0.76-0.41-1.34-1-1.74-1.78s-0.6-1.72-0.6-2.81v-8.92h2.63v8.99c0,0.8,0.21,1.42,0.64,1.86
					c0.43,0.44,1.03,0.66,1.82,0.66c0.79,0,1.4-0.22,1.83-0.66c0.43-0.44,0.65-1.06,0.65-1.86v-8.99h2.63v8.92
					c0,1.1-0.2,2.03-0.6,2.81s-0.98,1.37-1.75,1.78c-0.77,0.41-1.69,0.61-2.76,0.61C640.61,595.98,639.69,595.78,638.92,595.37z"/>
				<path class="st2" d="M651.52,595.37c-0.76-0.41-1.33-1-1.73-1.78c-0.4-0.78-0.6-1.72-0.6-2.82v-3.83c0-1.1,0.2-2.04,0.6-2.82
					c0.4-0.78,0.97-1.37,1.73-1.78s1.67-0.62,2.73-0.62c0.88,0,1.66,0.19,2.35,0.57c0.69,0.38,1.26,0.93,1.71,1.65
					c0.45,0.72,0.76,1.59,0.94,2.61h-2.73c-0.1-0.46-0.26-0.86-0.48-1.18s-0.47-0.58-0.78-0.75c-0.3-0.17-0.65-0.26-1.02-0.26
					c-0.49,0-0.91,0.1-1.26,0.3c-0.35,0.2-0.61,0.5-0.79,0.88s-0.27,0.85-0.27,1.4v3.83c0,0.54,0.09,1.01,0.27,1.39
					c0.18,0.38,0.45,0.68,0.79,0.88c0.35,0.2,0.76,0.3,1.26,0.3c0.38,0,0.73-0.08,1.04-0.25c0.31-0.17,0.57-0.42,0.78-0.75
					c0.21-0.33,0.37-0.72,0.46-1.19h2.73c-0.18,1.02-0.5,1.89-0.95,2.61c-0.45,0.72-1.02,1.27-1.71,1.65
					c-0.69,0.38-1.47,0.57-2.35,0.57C653.19,595.98,652.28,595.78,651.52,595.37z"/>
				<path class="st2" d="M665.46,581.86h1.67l5.34,13.97h-2.83l-3.34-9.54l-3.34,9.54h-2.83L665.46,581.86z M662.68,591.06h7.35
					v2.54h-7.35V591.06z"/>
				<path class="st2" d="M676.04,595.37c-0.76-0.41-1.33-1-1.73-1.78c-0.4-0.78-0.6-1.72-0.6-2.82v-3.83c0-1.1,0.2-2.04,0.6-2.82
					c0.4-0.78,0.97-1.37,1.73-1.78s1.67-0.62,2.73-0.62c0.88,0,1.66,0.19,2.35,0.57c0.69,0.38,1.26,0.93,1.71,1.65
					c0.45,0.72,0.76,1.59,0.94,2.61h-2.73c-0.1-0.46-0.26-0.86-0.48-1.18s-0.47-0.58-0.78-0.75c-0.3-0.17-0.65-0.26-1.02-0.26
					c-0.49,0-0.91,0.1-1.26,0.3c-0.35,0.2-0.61,0.5-0.79,0.88s-0.27,0.85-0.27,1.4v3.83c0,0.54,0.09,1.01,0.27,1.39
					c0.18,0.38,0.45,0.68,0.79,0.88c0.35,0.2,0.76,0.3,1.26,0.3c0.38,0,0.73-0.08,1.04-0.25c0.31-0.17,0.57-0.42,0.78-0.75
					c0.21-0.33,0.37-0.72,0.46-1.19h2.73c-0.18,1.02-0.5,1.89-0.95,2.61c-0.45,0.72-1.02,1.27-1.71,1.65
					c-0.69,0.38-1.47,0.57-2.35,0.57C677.71,595.98,676.8,595.78,676.04,595.37z M676.84,599.72l0.4-1.49
					c0.34,0.09,0.68,0.13,1.01,0.13c0.27,0,0.48-0.03,0.63-0.09c0.15-0.06,0.23-0.15,0.23-0.25c0-0.13-0.12-0.24-0.37-0.31
					c-0.24-0.07-0.59-0.11-1.04-0.11l0.93-1.16c0.84,0,1.49,0.15,1.95,0.45c0.46,0.3,0.69,0.72,0.69,1.27
					c0,0.55-0.25,0.98-0.74,1.28c-0.5,0.3-1.2,0.46-2.11,0.46C677.8,599.89,677.27,599.84,676.84,599.72z M679.69,595.25v2.36
					l-1.98-0.02v-2.35H679.69z"/>
				<path class="st2" d="M689.98,581.86h1.67l5.34,13.97h-2.83l-3.34-9.54l-3.34,9.54h-2.83L689.98,581.86z M692.03,580.8
					c-0.18-0.04-0.35-0.09-0.5-0.16c-0.16-0.06-0.32-0.14-0.5-0.23L691,580.4c-0.03-0.01-0.05-0.02-0.07-0.03
					c-0.02-0.01-0.04-0.02-0.07-0.03c-0.26-0.13-0.46-0.22-0.62-0.28s-0.32-0.09-0.48-0.09c-0.22,0-0.39,0.06-0.5,0.17
					s-0.17,0.28-0.17,0.5v0.2h-2v-0.24c0-1.03,0.16-1.79,0.49-2.3s0.82-0.76,1.47-0.76c0.26,0,0.52,0.04,0.78,0.13
					c0.26,0.08,0.56,0.2,0.9,0.36l0.03,0.02c0.03,0.01,0.07,0.03,0.1,0.04c0.04,0.02,0.07,0.03,0.1,0.05
					c0.24,0.11,0.42,0.19,0.55,0.24s0.24,0.07,0.35,0.07c0.22,0,0.39-0.06,0.5-0.19s0.17-0.31,0.17-0.55v-0.19h2v0.23
					c0,1.04-0.16,1.83-0.49,2.35c-0.32,0.52-0.81,0.78-1.47,0.78C692.4,580.86,692.21,580.84,692.03,580.8z M687.21,591.06h7.35
					v2.54h-7.35V591.06z"/>
				<path class="st2" d="M700.67,595.34c-0.77-0.43-1.37-1.03-1.79-1.81s-0.63-1.68-0.63-2.71v-3.96c0-1.03,0.21-1.93,0.63-2.71
					s1.02-1.38,1.79-1.81c0.77-0.43,1.66-0.64,2.68-0.64c1.01,0,1.9,0.21,2.68,0.64c0.77,0.43,1.37,1.03,1.79,1.81
					s0.63,1.68,0.63,2.71v3.96c0,1.02-0.21,1.93-0.63,2.71s-1.02,1.38-1.79,1.81c-0.77,0.43-1.67,0.64-2.68,0.64
					C702.34,595.98,701.44,595.77,700.67,595.34z M704.6,593.05c0.36-0.2,0.64-0.49,0.83-0.86c0.2-0.37,0.29-0.8,0.29-1.29v-4.09
					c0-0.49-0.1-0.92-0.29-1.29c-0.2-0.37-0.47-0.66-0.83-0.86c-0.36-0.2-0.78-0.3-1.25-0.3c-0.47,0-0.89,0.1-1.25,0.3
					c-0.36,0.2-0.64,0.49-0.83,0.86c-0.2,0.37-0.29,0.8-0.29,1.29v4.09c0,0.49,0.1,0.92,0.29,1.29c0.2,0.37,0.47,0.66,0.83,0.86
					c0.36,0.2,0.77,0.3,1.25,0.3C703.82,593.35,704.24,593.25,704.6,593.05z"/>
				<path class="st2" d="M720.13,581.86h1.67l5.34,13.97h-2.83l-3.34-9.54l-3.34,9.54h-2.83L720.13,581.86z M717.35,591.06h7.35
					v2.54h-7.35V591.06z"/>
				<path class="st2" d="M737.47,581.86h3.47v13.97h-2.39v-10.85l0.1,0.62l-2.67,8.68h-2.33l-2.67-8.49l0.1-0.81v10.85h-2.39v-13.97
					h3.47l2.66,9.42L737.47,581.86z"/>
				<path class="st2" d="M743.82,581.86h2.63v13.97h-2.63V581.86z M744.97,593.3h4.46c0.6,0,1.07-0.15,1.4-0.44
					c0.33-0.29,0.49-0.7,0.49-1.23v-0.03c0-0.35-0.07-0.65-0.22-0.9s-0.36-0.44-0.65-0.57c-0.29-0.13-0.63-0.2-1.02-0.2h-4.46v-2.54
					h4.46c0.54,0,0.97-0.14,1.26-0.41s0.45-0.66,0.45-1.16c0-0.45-0.15-0.8-0.45-1.05s-0.72-0.38-1.26-0.38h-4.46v-2.54h4.55
					c0.9,0,1.68,0.15,2.32,0.45c0.64,0.3,1.13,0.73,1.46,1.3s0.5,1.25,0.5,2.04c0,0.54-0.11,1.03-0.32,1.45
					c-0.21,0.42-0.53,0.76-0.94,1.03c-0.41,0.27-0.9,0.45-1.48,0.55c0.62,0.08,1.14,0.27,1.58,0.56c0.44,0.29,0.77,0.67,1,1.14
					s0.34,1.01,0.34,1.62v0.03c0,0.8-0.17,1.49-0.5,2.06c-0.34,0.57-0.83,1-1.47,1.3c-0.64,0.3-1.42,0.45-2.32,0.45h-4.71V593.3z"/>
				<path class="st2" d="M758.86,595.84h-2.73v-13.97h2.73V595.84z"/>
				<path class="st2" d="M761.55,581.86h2.63v13.97h-2.63V581.86z M762.5,581.86h8.41v2.54h-8.41V581.86z M762.5,587.63h7.35v2.54
					h-7.35V587.63z M762.5,593.3h8.41v2.54h-8.41V593.3z"/>
				<path class="st2" d="M773.12,581.86h3.22l5.2,10.71l-0.23,0.25v-10.96h2.52v13.96h-3.24l-5.18-10.54l0.23-0.25v10.79h-2.52
					V581.86z"/>
				<path class="st2" d="M784.78,581.86h10.25v2.54h-10.25V581.86z M788.58,583.01h2.63v12.83h-2.63V583.01z"/>
				<path class="st2" d="M799.98,581.86h1.67l5.34,13.97h-2.83l-3.34-9.54l-3.34,9.54h-2.83L799.98,581.86z M797.2,591.06h7.35v2.54
					h-7.35V591.06z"/>
				<path class="st2" d="M808.53,581.86h2.63v13.97h-2.63V581.86z M809.7,593.3h8.19v2.54h-8.19V593.3z"/>
			</g>
		</g>
		<linearGradient id="SVGID_1_" gradientUnits="userSpaceOnUse" x1="664.1912" y1="565.1619" x2="813.6956" y2="565.1619">
			<stop  offset="0" style="stop-color:#129DE4"/>
			<stop  offset="0.4667" style="stop-color:#14E259"/>
			<stop  offset="1" style="stop-color:#00284F"/>
		</linearGradient>
		<rect x="664.19" y="558.1" class="st8" width="149.5" height="14.12"/>
	</g>
</g>
</svg>
